<svg id="Layer_1" data-name="Layer 1" xmlns="http://www.w3.org/2000/svg" viewBox="0 0 213.74 91.49"><defs><style>.cls-1{fill:#f0f;}</style></defs><title>Unleash_BotonTickets</title><path class="cls-1" d="M178.51,20.39h0a1,1,0,0,1-1-1l0-7.5a1,1,0,0,1,1-1,1,1,0,0,1,1,1l0,7.5A1,1,0,0,1,178.51,20.39Z"/><path class="cls-1" d="M178.24,62.06h0a1,1,0,0,1-1-1l.08-12.5a1,1,0,1,1,2,0l-.08,12.5A1,1,0,0,1,178.24,62.06Zm.13-20.83h0a1,1,0,0,1-1-1l.08-12.5a1,1,0,0,1,2,0l-.08,12.5A1,1,0,0,1,178.37,41.23Z"/><path class="cls-1" d="M178.14,77.89h0a1,1,0,0,1-1-1l.05-7.5a1,1,0,1,1,2,0l-.05,7.5A1,1,0,0,1,178.14,77.89Z"/><path class="cls-1" d="M36.05,20.39h0a1,1,0,0,1-1-1l0-7.5a1,1,0,0,1,1-1,1,1,0,0,1,1,1l0,7.5A1,1,0,0,1,36.05,20.39Z"/><path class="cls-1" d="M35.78,62.06h0a1,1,0,0,1-1-1l.08-12.5a1,1,0,1,1,2,0l-.08,12.5A1,1,0,0,1,35.78,62.06Zm.14-20.83h0a1,1,0,0,1-1-1L35,27.72a1,1,0,0,1,1-1,1,1,0,0,1,1,1l-.07,12.5A1,1,0,0,1,35.92,41.23Z"/><path class="cls-1" d="M35.68,77.89h0a1,1,0,0,1-1-1l0-7.5a1,1,0,0,1,1-1,1,1,0,0,1,1,1l0,7.5A1,1,0,0,1,35.68,77.89Z"/><path class="cls-1" d="M202.62,79.89H10.54V57.09h1a12.7,12.7,0,1,0,0-25.39h-1V8.89H202.62V31.7h-1a12.7,12.7,0,1,0,0,25.39h1Zm-190.08-2H200.62V59.06a14.7,14.7,0,0,1,0-29.33V10.89H12.54V29.73a14.7,14.7,0,0,1,0,29.33Z"/><path class="cls-1" d="M54.25,35.8h6.31A5.18,5.18,0,0,1,64.32,37a4,4,0,0,1,1.18,3,3.27,3.27,0,0,1-2,3.17,3.66,3.66,0,0,1,1.91,1.45,3.85,3.85,0,0,1,.63,2.13,4.5,4.5,0,0,1-1.27,3.2,5.05,5.05,0,0,1-3.89,1.36H54.25Zm6,6.21a3.19,3.19,0,0,0,1.95-.5,1.64,1.64,0,0,0,.67-1.39c0-1.25-.74-1.88-2.21-1.88H56.9V42ZM61,48.78a2.29,2.29,0,0,0,1.78-.6,2.12,2.12,0,0,0,.54-1.45c0-1.51-1-2.27-3-2.27H56.9v4.32Z"/><path class="cls-1" d="M75.88,51.23V50.15a3.53,3.53,0,0,1-2.95,1.35A3.94,3.94,0,0,1,70,50.38a4.76,4.76,0,0,1-1.13-3.51V40h2.58V46.4c0,1.75.71,2.63,2.12,2.63s2.27-.86,2.27-2.58V40h2.58V51.23Z"/><path class="cls-1" d="M83.16,55.51l1.74-4.46L80.67,40h2.6l2.62,6.93a8,8,0,0,1,.33,1,9.54,9.54,0,0,1,.31-1L89.18,40h2.6l-6,15.55Z"/><path class="cls-1" d="M105.2,38.33v12.9h-2.64V38.33H98.17V35.8h11.42v2.53Z"/><path class="cls-1" d="M114.53,38a1.44,1.44,0,0,1-1.08.45,1.48,1.48,0,0,1-1.09-.45,1.5,1.5,0,0,1-.45-1.09,1.44,1.44,0,0,1,.45-1.08,1.47,1.47,0,0,1,1.09-.44,1.43,1.43,0,0,1,1.08.44,1.47,1.47,0,0,1,.44,1.08A1.53,1.53,0,0,1,114.53,38Zm-2.38,13.26V40h2.58V51.23Z"/><path class="cls-1" d="M122.53,51.5a4.63,4.63,0,0,1-3.67-1.57,6.39,6.39,0,0,1-1.35-4.32,6.43,6.43,0,0,1,1.35-4.33,4.61,4.61,0,0,1,3.67-1.58A4.23,4.23,0,0,1,127,42.81l-2.45.81a2,2,0,0,0-1.94-1.45,2.13,2.13,0,0,0-1.83.92,5.1,5.1,0,0,0,0,5,2,2,0,0,0,1.75.91,2,2,0,0,0,2-1.63l2.47.75A4.27,4.27,0,0,1,122.53,51.5Z"/><path class="cls-1" d="M139.69,51.23h-2.83L133.65,45l-1.26,1.24v5h-2.58V36.52l2.58-1.21v7.92L135.56,40h3.13l-3.19,3.2Z"/><path class="cls-1" d="M146.54,51.5a4.83,4.83,0,0,1-3.8-1.58,6.32,6.32,0,0,1-1.4-4.33,6.22,6.22,0,0,1,1.41-4.31,5.34,5.34,0,0,1,7.33-.24,5.29,5.29,0,0,1,1.38,4,12.43,12.43,0,0,1-.09,1.59H143.9a2.75,2.75,0,0,0,.83,1.92,2.53,2.53,0,0,0,1.81.72,2.86,2.86,0,0,0,2.39-1.16l1.63,1.67A5,5,0,0,1,146.54,51.5Zm-2.62-7.06h5a2.71,2.71,0,0,0-.75-1.84,2.23,2.23,0,0,0-1.61-.63,2.66,2.66,0,0,0-1.81.61A2.53,2.53,0,0,0,143.92,44.44Z"/><path class="cls-1" d="M157.24,51.5c-1.75,0-2.63-1-2.63-2.89v-6.4h-1.67V40h1.67V36.55l2.58-1.24V40h2.6v2.25h-2.6V48.1c0,.72.32,1.08.95,1.08a3.57,3.57,0,0,0,1.76-.51L159.6,51A5,5,0,0,1,157.24,51.5Z"/></svg>