<?xml version="1.0" standalone="no"?>
<!DOCTYPE svg PUBLIC "-//W3C//DTD SVG 20010904//EN"
 "http://www.w3.org/TR/2001/REC-SVG-20010904/DTD/svg10.dtd">
<svg version="1.0" xmlns="http://www.w3.org/2000/svg"
 width="260.000000pt" height="260.000000pt" viewBox="0 0 260.000000 260.000000"
 preserveAspectRatio="xMidYMid meet">
<metadata>
Created by potrace 1.11, written by Peter Selinger 2001-2013
</metadata>
<g transform="translate(0.000000,260.000000) scale(0.100000,-0.100000)"
fill="#000000" stroke="none">
<path d="M1247 1893 c-2 -1 -16 -4 -32 -7 -17 -3 -43 -7 -60 -10 -34 -6 -222
-45 -245 -51 -8 -2 -43 -11 -77 -19 -213 -52 -580 -210 -601 -258 -2 -5 -8 -8
-12 -8 -17 0 -101 -84 -134 -134 -62 -95 -78 -184 -50 -274 45 -143 265 -278
571 -353 102 -24 96 -23 193 -39 41 -6 86 -13 100 -16 71 -12 225 -19 400 -19
223 0 344 8 480 31 19 4 49 8 65 11 122 19 308 73 415 120 169 75 284 177 311
276 16 59 4 152 -28 217 -24 48 -110 146 -168 190 -70 53 -231 132 -366 181
-96 34 -345 105 -408 115 -14 3 -58 11 -97 19 -108 22 -248 37 -257 28z"/>
</g>
</svg>
