<?xml version="1.0" encoding="utf-8"?>
<!-- Generator: Adobe Illustrator 23.0.0, SVG Export Plug-In . SVG Version: 6.00 Build 0)  -->
<svg version="1.1" id="Capa_1" xmlns="http://www.w3.org/2000/svg" xmlns:xlink="http://www.w3.org/1999/xlink" x="0px" y="0px"
	 viewBox="0 0 128 128" style="enable-background:new 0 0 128 128;" xml:space="preserve">
<g>
	<path d="M122,128l-56,0V92l56,0L122,128z M70,124l48,0l0-28H70V124z"/>
	<path d="M124,96l-60,0V82h60V96z M68,92h52v-6H68V92z"/>
	<path d="M90,86h-7.83c-5.28,0-9.79-4.04-10.14-9.31c-0.41-6.06,4.61-11.08,10.67-10.67C87.96,66.38,92,70.88,92,76.17V84
		C92,85.1,91.1,86,90,86z M82.72,70.04c-3.87-0.45-7.13,2.81-6.68,6.68c0.34,2.91,3.15,5.28,6.08,5.28H88v-5.88
		C88,73.19,85.63,70.38,82.72,70.04z"/>
	<path d="M105.83,86H98c-1.1,0-2-0.9-2-2v-7.83c0-5.28,4.04-9.79,9.31-10.14c6.06-0.41,11.08,4.61,10.67,10.67
		C115.62,81.96,111.12,86,105.83,86z M100,82h5.88c2.93,0,5.74-2.37,6.08-5.28c0.45-3.87-2.81-7.13-6.68-6.68
		c-2.91,0.34-5.28,3.15-5.28,6.08V82z"/>
	<path d="M98.37,81.97c-1.25,0.22-2.34-0.72-2.37-1.92c-0.02-0.91-0.57-1.74-1.45-1.98c-1.32-0.35-2.51,0.61-2.55,1.86
		c-0.03,1.03-0.75,1.94-1.77,2.06C89.02,82.12,88,81.18,88,80c0-3.31,2.69-6,6-6c3.29,0,5.97,2.66,6,5.95
		C100.01,80.92,99.33,81.8,98.37,81.97z"/>
	<path d="M70,128l-66,0L4,24l78.94,0c0.02,0,0.04,0.01,0.05,0.02c1.96,1.77,0.74,3.98-1,3.98L8,28l0,96l62.94,0
		c0.02,0,0.04,0.01,0.05,0.02C72.95,125.79,71.74,128,70,128z"/>
	<path d="M104.02,69c-0.01-0.01-0.02-0.03-0.02-0.05L104,28l-22.94,0c-0.02,0-0.04-0.01-0.05-0.02C79.05,26.21,80.26,24,82,24l26,0
		l0,44C108,69.74,105.79,70.95,104.02,69z"/>
	<path d="M59.34,19.9C58.52,19.64,58,18.83,58,17.96C57.98,10.26,51.71,4,44,4c-7.71,0-13.98,6.26-14,13.96
		c0,0.87-0.52,1.67-1.34,1.93C27.27,20.33,26,19.32,26,18c0-9.93,8.07-18,18-18c9.93,0,18,8.07,18,18
		C62,19.32,60.73,20.33,59.34,19.9z"/>
	<path d="M27.71,43.98C26.71,43.84,26,42.94,26,41.94l0-23.88c0-1,0.71-1.9,1.71-2.04C28.95,15.85,30,16.8,30,18l0,24
		C30,43.2,28.95,44.15,27.71,43.98z"/>
	<path d="M59.71,43.98C58.71,43.84,58,42.94,58,41.94l0-23.88c0-1,0.71-1.9,1.71-2.04C60.95,15.85,62,16.8,62,18l0,24
		C62,43.2,60.95,44.15,59.71,43.98z"/>
	<path d="M81.34,19.9C80.52,19.64,80,18.83,80,17.96C79.98,10.26,73.71,4,66,4s-13.98,6.26-14,13.96c0,0.87-0.52,1.67-1.34,1.93
		C49.27,20.33,48,19.32,48,18c0-9.93,8.07-18,18-18c9.93,0,18,8.07,18,18C84,19.32,82.73,20.33,81.34,19.9z"/>
	<path d="M49.71,27.98C48.71,27.84,48,26.94,48,25.94v-7.88c0-1,0.71-1.9,1.71-2.04C50.95,15.85,52,16.8,52,18v8
		C52,27.2,50.95,28.15,49.71,27.98z"/>
	<path d="M81.71,27.98C80.71,27.84,80,26.94,80,25.94v-7.88c0-1,0.71-1.9,1.71-2.04C82.95,15.85,84,16.8,84,18v8
		C84,27.2,82.95,28.15,81.71,27.98z"/>
	<path d="M89.71,127.98c-0.99-0.14-1.71-1.03-1.71-2.04c0-5.96,0-35.92,0-41.88c0-1,0.71-1.9,1.71-2.04C90.95,81.85,92,82.8,92,84
		l0,42C92,127.2,90.95,128.15,89.71,127.98z"/>
	<path d="M97.71,127.98c-0.99-0.14-1.71-1.03-1.71-2.04c0-5.96,0-35.92,0-41.88c0-1,0.71-1.9,1.71-2.04C98.95,81.85,100,82.8,100,84
		l0,42C100,127.2,98.95,128.15,97.71,127.98z"/>
	<rect x="26" y="26.99" width="4" height="17.01"/>
	<rect x="58" y="26.99" width="4" height="17.01"/>
</g>
</svg>
