<?xml version="1.0" encoding="utf-8"?>
<!-- Generator: Adobe Illustrator 23.0.0, SVG Export Plug-In . SVG Version: 6.00 Build 0)  -->
<svg version="1.1" id="Capa_1" xmlns="http://www.w3.org/2000/svg" xmlns:xlink="http://www.w3.org/1999/xlink" x="0px" y="0px"
	 viewBox="0 0 128 128" style="enable-background:new 0 0 128 128;" xml:space="preserve">
<path d="M106.67,25.6l0-8.53l-4.27-4.27l-7.21,0L87.47,0L40.53,0l-7.72,12.8l-7.21,0l-4.27,4.27l0,8.53l6.58,4.27L29.2,44.8
	l-3.59,2.37l4.27,38.4l3.04,1.9l3.18,36.63l4.25,3.9l47.29,0l4.25-3.9l3.18-36.64l3.04-1.9l4.27-38.4l-3.59-2.37l1.29-14.93
	L106.67,25.6z M41.85,4.27l44.3,0l4.27,8.53l-52.83,0L41.85,4.27z M25.6,17.07l76.8,0l0,8.53l-76.8,0L25.6,17.07z M30.12,49.07
	l6.37,0l3.79,34.13l-6.37,0L30.12,49.07z M74.54,49.07l-1.9,34.13h-6.52l0-34.13L74.54,49.07z M76.92,83.2l1.9-34.13l8.4,0
	L83.42,83.2H76.92z M61.87,83.2h-6.51l-1.9-34.13l8.41,0L61.87,83.2z M49.18,49.07l1.9,34.13l-6.5,0l-3.79-34.13L49.18,49.07z
	 M87.64,123.73l-47.29,0l-3.15-36.27l53.59,0L87.64,123.73z M94.09,83.2h-6.38l3.79-34.13l6.37,0L94.09,83.2z M94.51,44.8l-61.03,0
	l-1.29-14.93l63.62,0L94.51,44.8z"/>
</svg>
