<?xml version="1.0" encoding="utf-8"?>
<!-- Generator: Adobe Illustrator 23.0.0, SVG Export Plug-In . SVG Version: 6.00 Build 0)  -->
<svg version="1.1" id="Capa_1" xmlns="http://www.w3.org/2000/svg" xmlns:xlink="http://www.w3.org/1999/xlink" x="0px" y="0px"
	 viewBox="0 0 128 128" style="enable-background:new 0 0 128 128;" xml:space="preserve">
<path d="M101.75,29.92c5.32-7.05,8.59-16.37,8.59-26.61l-4.41,0c0,18.98-12.24,34.47-27.52,35.24c-1.73-1.02-3.67-1.7-5.74-1.98
	c-1.01-7.55-7.47-13.39-15.29-13.39c-4.81,0-9.24,2.26-12.13,5.94c-2.83-3.61-7.22-5.94-12.15-5.94c-8.52,0-15.45,6.93-15.45,15.45
	c0,3.4,1.12,6.62,3.09,9.25c-6.82,1.6-11.92,7.72-11.92,15.03c0,4.84,2.24,9.16,5.73,11.99C8.65,77.06,4.41,82.73,4.41,89.38
	c0,2.63,0.67,5.15,1.92,7.42C2.5,99.61,0,104.14,0,109.24c0,8.52,6.93,15.45,15.45,15.45c5.53,0,10.37-2.93,13.1-7.3
	c2.6,1.86,5.74,2.89,8.97,2.89c6.19,0,11.52-3.66,13.98-8.93c2.42,1.49,5.19,2.3,8.08,2.3c6.87,0,12.7-4.51,14.7-10.73
	c2.25,1.23,4.77,1.9,7.37,1.9c8.52,0,15.45-6.93,15.45-15.45c0-3.35-1.09-6.46-2.91-8.99c4.46-2.78,7.33-7.7,7.33-13.08
	c0-8.52-6.86-15.5-15.45-15.43c0-0.01,0-0.01,0-0.02c0-3.56-1.22-6.82-3.24-9.44c5.36-1.1,10.27-3.74,14.43-7.54
	c1.45,14.47,13.69,25.81,28.54,25.81H128v-2.21C128,43.49,116.43,31.16,101.75,29.92z M81.46,53.88c0,0.01-0.01,0.01-0.01,0.02
	c-0.04,0.22-0.12,0.42-0.17,0.63c-0.1,0.38-0.19,0.75-0.32,1.11c-0.11,0.29-0.24,0.57-0.37,0.85c-0.12,0.26-0.25,0.53-0.39,0.78
	c-0.16,0.29-0.34,0.56-0.53,0.84c-0.15,0.22-0.31,0.43-0.47,0.63c-0.21,0.26-0.43,0.52-0.66,0.77c-0.19,0.2-0.4,0.37-0.6,0.55
	c-0.24,0.21-0.47,0.44-0.73,0.63c-0.46,0.34-0.94,0.66-1.45,0.92c-0.14,0.08-0.29,0.12-0.43,0.19C74.9,62,74.46,62.19,74,62.34
	c-0.17,0.05-0.35,0.09-0.52,0.14c-0.54,0.15-1.09,0.28-1.67,0.34c-0.06-0.03-0.11-0.05-0.17-0.08c-1.06-0.61-2.2-1.09-3.4-1.43
	c-0.16-0.05-0.32-0.08-0.49-0.13c-0.45-0.11-0.91-0.21-1.37-0.28c-0.17-0.03-0.34-0.06-0.51-0.08c-0.6-0.07-1.21-0.12-1.83-0.12
	c-0.01,0-0.02,0-0.03,0C63,59.93,62.15,59.02,61.46,58l-0.14-0.22c-0.87-1.36-1.42-2.87-1.63-4.48l-0.04-0.26
	c-0.04-0.39-0.07-0.78-0.07-1.18c0-6.09,4.95-11.03,11.03-11.03c6.08,0,11.03,4.95,11.03,11.03C81.66,52.55,81.59,53.22,81.46,53.88
	z M73.63,81.45c-0.2,0.36-0.43,0.71-0.66,1.05c-0.08,0.11-0.15,0.21-0.23,0.32c-0.21,0.28-0.45,0.54-0.69,0.8
	c-0.12,0.13-0.24,0.27-0.37,0.4c-0.22,0.22-0.46,0.42-0.7,0.62c-0.16,0.13-0.32,0.27-0.5,0.4c-0.24,0.17-0.49,0.33-0.74,0.48
	c-0.19,0.12-0.38,0.25-0.58,0.35c-0.06,0.03-0.13,0.05-0.19,0.08c-0.03-0.02-0.07-0.04-0.1-0.07c-1.25-0.94-2.63-1.69-4.13-2.22
	c-0.1-0.04-0.19-0.07-0.29-0.11c-0.7-0.23-1.42-0.41-2.16-0.54c-0.14-0.02-0.28-0.04-0.42-0.06c-0.75-0.11-1.51-0.19-2.29-0.19
	c-0.81,0-1.61,0.06-2.41,0.19c0.01-0.07,0.01-0.15,0.02-0.22c0.11-0.72,0.18-1.45,0.18-2.18c0-0.6-0.04-1.19-0.11-1.78
	c-0.02-0.2-0.06-0.4-0.09-0.59c-0.06-0.39-0.13-0.77-0.22-1.15c-0.05-0.22-0.11-0.44-0.17-0.66c-0.1-0.37-0.22-0.73-0.36-1.1
	c-0.07-0.19-0.13-0.38-0.21-0.56c-0.22-0.54-0.47-1.07-0.74-1.57c0,0,0-0.01-0.01-0.01c0.11-0.08,0.21-0.19,0.32-0.28
	c0.48-0.37,0.94-0.76,1.37-1.18c0.11-0.11,0.2-0.22,0.31-0.33c0.44-0.46,0.86-0.95,1.24-1.46c0.07-0.09,0.13-0.18,0.19-0.27
	c0.4-0.56,0.76-1.15,1.08-1.76c0.03-0.06,0.06-0.12,0.1-0.18c0.34-0.67,0.64-1.37,0.88-2.09c0-0.01,0.01-0.02,0.01-0.02
	C61.99,65.25,63,65.1,64,65.1c0.68,0,1.33,0.08,1.98,0.2c0.19,0.04,0.38,0.08,0.57,0.13c0.47,0.11,0.94,0.26,1.39,0.43
	c0.17,0.06,0.34,0.12,0.5,0.19c0.6,0.26,1.18,0.57,1.71,0.93L70.17,67c0.49,0.33,0.92,0.72,1.35,1.12c0.41,0.39,0.78,0.81,1.12,1.25
	c0.11,0.14,0.24,0.27,0.34,0.42c0.37,0.52,0.67,1.07,0.95,1.64c0.05,0.1,0.11,0.19,0.16,0.29c0.28,0.64,0.5,1.32,0.65,2
	c0.01,0.05,0.03,0.09,0.04,0.14c0.15,0.71,0.22,1.43,0.23,2.16l-0.05,0.77c-0.09,1.6-0.54,3.11-1.25,4.48
	C73.69,81.33,73.66,81.39,73.63,81.45z M42.89,90.36c-0.47-0.17-0.94-0.32-1.43-0.45c-0.13-0.04-0.26-0.07-0.39-0.1
	c-0.45-0.11-0.91-0.19-1.37-0.26c-0.14-0.02-0.27-0.05-0.41-0.06c-0.58-0.07-1.17-0.11-1.77-0.11c-0.63,0-1.28,0.05-1.98,0.14
	c-0.08-0.05-0.15-0.11-0.23-0.17c0-0.5-0.03-1-0.08-1.49c-0.03-0.33-0.09-0.66-0.15-0.99c-0.03-0.15-0.04-0.31-0.07-0.46
	c-0.08-0.41-0.18-0.8-0.29-1.2c-0.02-0.07-0.03-0.14-0.06-0.21c-0.12-0.42-0.27-0.83-0.43-1.23c-0.02-0.05-0.03-0.09-0.05-0.14
	c-0.16-0.4-0.35-0.8-0.54-1.18c-0.02-0.05-0.05-0.1-0.07-0.15c-0.19-0.37-0.4-0.73-0.63-1.08c-0.04-0.06-0.08-0.13-0.12-0.19
	c-0.22-0.33-0.45-0.66-0.69-0.97c-0.06-0.08-0.12-0.16-0.17-0.23c-0.24-0.3-0.49-0.59-0.75-0.87c-0.06-0.06-0.1-0.13-0.16-0.19
	c0.13-0.79,0.35-1.57,0.65-2.32c0.61-0.34,1.19-0.73,1.75-1.15c0.05-0.04,0.1-0.08,0.15-0.11c1.11-0.85,2.1-1.83,2.94-2.94
	c0.04-0.05,0.08-0.1,0.12-0.15c0.41-0.55,0.79-1.13,1.13-1.73c0.05-0.02,0.1-0.04,0.16-0.07c0.58-0.22,1.16-0.4,1.76-0.53
	c0.1-0.02,0.2-0.03,0.3-0.05c0.63-0.11,1.26-0.18,1.91-0.18c0.7,0,1.38,0.08,2.05,0.21c0.09,0.02,0.17,0.03,0.26,0.04
	c0.63,0.13,1.24,0.33,1.83,0.57c0.1,0.04,0.2,0.08,0.29,0.12c0.58,0.25,1.13,0.55,1.65,0.9c0.08,0.05,0.16,0.12,0.24,0.17
	c0.47,0.33,0.9,0.69,1.31,1.08c0.07,0.07,0.15,0.13,0.22,0.2c0.39,0.39,0.73,0.83,1.05,1.27c0.18,0.24,0.34,0.5,0.5,0.76
	c0.2,0.33,0.39,0.67,0.55,1.02c0.11,0.24,0.22,0.47,0.32,0.72c0.16,0.42,0.29,0.86,0.4,1.3c0.05,0.21,0.12,0.41,0.16,0.62
	c0.13,0.67,0.21,1.35,0.21,2.05c0,0.66-0.08,1.33-0.21,1.99c-0.06,0.3-0.17,0.6-0.26,0.9c-0.12,0.41-0.22,0.83-0.39,1.23
	c-2.52,1.38-4.57,3.48-5.98,6.04c-0.47,0.2-0.92,0.37-1.35,0.49c-0.53-0.28-1.08-0.53-1.64-0.75
	C43.05,90.42,42.97,90.39,42.89,90.36z M39.72,62.9c0-0.69-0.06-1.36-0.15-2.02c-0.02-0.15-0.04-0.29-0.07-0.43
	c-0.1-0.63-0.23-1.25-0.41-1.86c-0.01-0.03-0.02-0.06-0.02-0.09c-0.2-0.67-0.45-1.32-0.73-1.94c-0.04-0.09-0.09-0.18-0.13-0.27
	c-0.26-0.56-0.56-1.09-0.89-1.61c-0.03-0.05-0.06-0.11-0.09-0.17c0.32-0.46,0.69-0.91,1.09-1.34c0.12-0.04,0.24-0.1,0.36-0.15
	c0.26-0.1,0.51-0.21,0.76-0.32c0.2-0.09,0.4-0.19,0.61-0.29c0.25-0.13,0.5-0.26,0.74-0.4c0.19-0.11,0.38-0.23,0.57-0.35
	c0.23-0.15,0.46-0.3,0.68-0.46c0.19-0.14,0.38-0.28,0.57-0.43c0.2-0.16,0.39-0.32,0.58-0.48c0.1-0.08,0.2-0.16,0.3-0.25
	c1.44-0.39,2.89-0.45,4.29-0.26c0.46,0.06,0.92,0.14,1.36,0.26c0.17,0.04,0.34,0.09,0.5,0.15c0.49,0.15,0.97,0.34,1.44,0.56
	c0.09,0.04,0.17,0.08,0.26,0.12c1.17,0.6,2.23,1.4,3.14,2.39l0.14,0.15c0.27,0.31,0.54,0.61,0.77,0.95c0.03,0.21,0.09,0.4,0.13,0.61
	c0.09,0.42,0.19,0.84,0.31,1.25c0.1,0.34,0.2,0.68,0.32,1.01c0.1,0.26,0.21,0.51,0.32,0.77c0.11,0.25,0.22,0.5,0.35,0.75
	c0.13,0.26,0.27,0.53,0.42,0.78c0.03,0.06,0.06,0.12,0.09,0.18c0.03,0.33,0.06,0.66,0.06,0.99c0,0.74-0.09,1.47-0.23,2.18
	l-0.11,0.45c-0.56,2.29-1.84,4.31-3.61,5.8c-0.06,0.05-0.12,0.1-0.17,0.14c-0.15,0.12-0.32,0.2-0.47,0.31
	c-0.34-0.33-0.68-0.65-1.05-0.95c-0.37-0.3-0.75-0.59-1.15-0.86c-0.01-0.01-0.02-0.01-0.03-0.02c-1.24-0.84-2.6-1.49-4.03-1.94
	c0,0-0.01,0-0.02-0.01c-0.43-0.13-0.86-0.24-1.3-0.33c-0.06-0.01-0.12-0.03-0.19-0.05c-0.4-0.08-0.81-0.14-1.22-0.19
	c-0.1-0.01-0.21-0.04-0.31-0.05c-0.52-0.05-1.04-0.08-1.56-0.08c-0.72,0-1.43,0.07-2.14,0.17c-0.08,0.01-0.17,0.01-0.26,0.02
	c0.01-0.07,0.01-0.15,0.02-0.22C39.65,64.36,39.72,63.64,39.72,62.9z M47.65,33.42c1.91-3.57,5.64-5.84,9.73-5.84
	c5.39,0,9.9,3.89,10.85,9.01c-0.08,0.01-0.15,0.04-0.23,0.05c-0.68,0.12-1.36,0.27-2.01,0.47c-0.04,0.01-0.08,0.03-0.13,0.05
	c-0.62,0.2-1.21,0.45-1.79,0.72c-0.14,0.07-0.29,0.13-0.43,0.21c-0.6,0.3-1.18,0.64-1.73,1.01c-0.06,0.04-0.12,0.09-0.18,0.13
	c-0.5,0.35-0.97,0.74-1.42,1.14c-0.12,0.1-0.23,0.2-0.34,0.31c-0.48,0.46-0.93,0.94-1.35,1.46c-0.06,0.08-0.11,0.16-0.17,0.23
	c-0.36,0.47-0.7,0.96-1.01,1.46c-0.08,0.13-0.16,0.25-0.23,0.38c-0.33,0.58-0.63,1.18-0.88,1.8c-0.04,0.11-0.08,0.22-0.12,0.33
	c-0.21,0.55-0.39,1.12-0.54,1.7c-0.02,0.09-0.06,0.18-0.09,0.27c-1.15-0.87-2.42-1.54-3.76-2.05c-0.13-0.05-0.25-0.09-0.38-0.13
	c-0.63-0.22-1.27-0.4-1.92-0.54c-0.13-0.03-0.25-0.06-0.37-0.08c-0.14-0.02-0.27-0.07-0.41-0.09c-0.42-0.52-0.78-1.06-1.08-1.62
	c0.02-0.05,0.02-0.11,0.04-0.16c0.25-0.73,0.45-1.48,0.6-2.25c0.02-0.13,0.04-0.26,0.06-0.38c0.13-0.78,0.21-1.58,0.21-2.4
	c0-0.82-0.08-1.62-0.21-2.4c-0.02-0.13-0.04-0.26-0.06-0.39c-0.14-0.78-0.34-1.53-0.6-2.26C47.67,33.53,47.67,33.47,47.65,33.42z
	 M33.1,27.59c4.54,0,8.44,2.76,10.13,6.68c0.26,0.62,0.46,1.25,0.61,1.9c0.02,0.08,0.05,0.14,0.07,0.22
	c0.15,0.73,0.23,1.48,0.23,2.24c0,0.76-0.08,1.5-0.23,2.24c-0.02,0.08-0.05,0.14-0.07,0.22c-0.15,0.64-0.34,1.28-0.61,1.9
	c-0.81,1.88-2.14,3.48-3.79,4.65c-0.12,0.08-0.23,0.16-0.35,0.24c-0.51,0.33-1.04,0.63-1.6,0.87c-0.1,0.04-0.2,0.08-0.3,0.12
	c-1.27,0.51-2.64,0.81-4.09,0.81c-0.33,0-0.66-0.02-0.98-0.05c-0.05-0.03-0.11-0.06-0.17-0.09c-0.27-0.16-0.55-0.3-0.84-0.45
	c-0.15-0.08-0.3-0.15-0.45-0.22c-0.29-0.13-0.58-0.25-0.88-0.37c-0.15-0.06-0.29-0.11-0.44-0.16c-0.32-0.11-0.65-0.21-0.98-0.3
	c-0.12-0.03-0.24-0.06-0.36-0.09c-0.36-0.09-0.73-0.17-1.11-0.23c-0.03-0.01-0.06-0.02-0.1-0.02c-2.97-2.07-4.73-5.42-4.73-9.05
	C22.07,32.54,27.02,27.59,33.1,27.59z M13.24,62.9c0-6.09,4.95-11.03,11.03-11.03c0.65,0,1.28,0.08,1.9,0.19
	c0.18,0.03,0.36,0.06,0.53,0.1c0.56,0.13,1.11,0.3,1.63,0.51c0.15,0.06,0.3,0.12,0.45,0.19c0.56,0.25,1.11,0.54,1.61,0.88l0.06,0.04
	c1.05,0.71,1.94,1.62,2.69,2.64c0.17,0.22,0.32,0.46,0.47,0.69c0.22,0.36,0.42,0.73,0.6,1.11c0.1,0.22,0.21,0.44,0.3,0.66
	c0.17,0.44,0.31,0.91,0.43,1.37c0.05,0.19,0.11,0.38,0.15,0.58c0.13,0.67,0.21,1.37,0.21,2.08c0,0.68-0.08,1.34-0.2,1.99
	c-0.02,0.12-0.03,0.23-0.06,0.34c-0.12,0.55-0.3,1.08-0.5,1.59c-0.08,0.22-0.17,0.43-0.27,0.65c-0.13,0.29-0.3,0.57-0.46,0.85
	c-0.17,0.3-0.33,0.61-0.53,0.89c-0.18,0.26-0.4,0.49-0.6,0.73c-0.42,0.5-0.88,0.96-1.38,1.38c-0.24,0.2-0.46,0.42-0.72,0.6
	c-0.28,0.2-0.6,0.36-0.9,0.53c-1.6,0.92-3.44,1.48-5.42,1.48C18.19,73.93,13.24,68.98,13.24,62.9z M10.21,94.71
	c-0.91-1.63-1.38-3.44-1.38-5.33c0-6.08,4.95-11.03,11.03-11.03c2.91,0,5.55,1.16,7.52,3.01c0.41,0.39,0.78,0.81,1.12,1.25
	c0.11,0.14,0.24,0.27,0.35,0.42c0.36,0.51,0.67,1.07,0.94,1.63c0.05,0.1,0.12,0.19,0.16,0.3c0.28,0.64,0.49,1.31,0.65,1.99
	c0.01,0.05,0.04,0.1,0.05,0.15c0.16,0.74,0.24,1.51,0.24,2.28c0,0.51-0.04,1.03-0.13,1.58c-1.12,0.55-2.14,1.26-3.1,2.05
	c-0.19,0.15-0.38,0.29-0.56,0.45c-0.3,0.27-0.57,0.58-0.85,0.88c-0.24,0.26-0.49,0.5-0.71,0.78c-0.22,0.28-0.43,0.57-0.63,0.87
	c-0.16,0.23-0.35,0.45-0.5,0.69c-0.05-0.04-0.1-0.06-0.15-0.09c-0.54-0.38-1.1-0.72-1.69-1.02c-0.17-0.09-0.35-0.17-0.52-0.25
	c-0.51-0.25-1.04-0.46-1.58-0.65c-0.13-0.04-0.25-0.1-0.37-0.14c-0.64-0.2-1.31-0.35-1.98-0.47c-0.17-0.03-0.35-0.05-0.52-0.08
	c-0.71-0.1-1.42-0.17-2.15-0.17c-0.83,0-1.63,0.08-2.42,0.21c-0.13,0.02-0.26,0.04-0.39,0.06c-0.78,0.14-1.53,0.35-2.27,0.61
	C10.32,94.69,10.26,94.69,10.21,94.71z M15.45,120.28c-6.08,0-11.03-4.95-11.03-11.03c0-4.41,2.62-8.2,6.37-9.96
	c0.28-0.13,0.57-0.25,0.86-0.36c0.3-0.11,0.61-0.2,0.92-0.29c0.35-0.09,0.71-0.19,1.06-0.24c0.21-0.04,0.43-0.04,0.65-0.07
	c1.48-0.15,2.98-0.01,4.39,0.42c0.13,0.04,0.27,0.08,0.4,0.13c0.41,0.14,0.81,0.31,1.21,0.5c0.23,0.11,0.45,0.23,0.66,0.36
	c0.3,0.17,0.61,0.35,0.9,0.55c0.33,0.24,0.64,0.5,0.94,0.78c0.17,0.15,0.36,0.29,0.52,0.45c0.22,0.22,0.4,0.48,0.59,0.72
	c0.28,0.34,0.56,0.67,0.8,1.04c0.16,0.25,0.29,0.53,0.43,0.8c0.19,0.34,0.38,0.68,0.53,1.04c0.14,0.35,0.24,0.73,0.34,1.1
	c0.09,0.3,0.2,0.59,0.26,0.9c0.13,0.69,0.21,1.4,0.21,2.13c0,0.7-0.08,1.38-0.21,2.04c-0.07,0.36-0.19,0.72-0.3,1.07
	c-0.11,0.38-0.2,0.77-0.35,1.14l-0.02,0.05C23.93,117.5,20.01,120.28,15.45,120.28z M37.52,115.86c-2.66,0-5.16-0.93-7.15-2.65
	c0.01-0.04,0.02-0.09,0.03-0.13c0.13-0.53,0.24-1.06,0.32-1.6c0.02-0.13,0.04-0.25,0.06-0.38c0.07-0.61,0.12-1.23,0.12-1.87
	c0-0.78-0.08-1.54-0.19-2.29c-0.02-0.14-0.04-0.28-0.06-0.42c-0.13-0.74-0.31-1.46-0.54-2.15c-0.03-0.1-0.07-0.2-0.11-0.29
	c-0.53-1.49-1.28-2.88-2.22-4.12c-0.02-0.02-0.03-0.04-0.04-0.06c0.13-0.25,0.23-0.51,0.37-0.75c0.07-0.12,0.13-0.24,0.21-0.35
	c0.39-0.58,0.82-1.14,1.31-1.64c0.04-0.04,0.08-0.07,0.11-0.1c0.52-0.51,1.08-0.99,1.7-1.39c0,0,0,0,0.01-0.01
	c0.64-0.43,1.34-0.79,2.07-1.07l0.16-0.06c0.6-0.23,1.23-0.41,1.87-0.52c0.28-0.05,0.54-0.09,0.8-0.12
	c0.39-0.04,0.78-0.09,1.18-0.09c0.66,0,1.31,0.08,1.94,0.2c0.2,0.04,0.4,0.08,0.59,0.13c0.47,0.11,0.93,0.26,1.38,0.43
	c0.16,0.06,0.33,0.1,0.48,0.17c1.23,0.54,2.35,1.3,3.3,2.22c0.39,0.38,0.72,0.8,1.04,1.22c0.12,0.16,0.27,0.29,0.38,0.46
	c0.25,0.37,0.44,0.77,0.64,1.16c0.79,1.52,1.28,3.22,1.28,5.05c0,0.67-0.08,1.32-0.2,1.95c-0.02,0.13-0.04,0.27-0.07,0.4
	C47.2,112.14,42.79,115.86,37.52,115.86z M59.59,109.24c-2.47,0-4.83-0.82-6.77-2.33c0.01-0.04,0-0.09,0.01-0.13
	c0.08-0.64,0.14-1.29,0.14-1.95c0-0.51-0.03-1.01-0.08-1.51c-0.01-0.13-0.04-0.26-0.05-0.39c-0.04-0.37-0.1-0.73-0.17-1.1
	c-0.03-0.13-0.06-0.26-0.09-0.39c-0.08-0.36-0.17-0.71-0.27-1.06c-0.04-0.12-0.08-0.24-0.12-0.36c-0.11-0.35-0.24-0.7-0.38-1.04
	c-0.05-0.12-0.1-0.23-0.15-0.34c-0.14-0.33-0.3-0.65-0.47-0.97c-0.06-0.12-0.13-0.25-0.2-0.36c-0.16-0.29-0.34-0.57-0.52-0.85
	c-0.09-0.14-0.18-0.28-0.28-0.42c-0.16-0.23-0.34-0.46-0.51-0.69c-0.13-0.17-0.26-0.34-0.4-0.5c-0.05-0.06-0.09-0.12-0.14-0.17
	c0.09-0.28,0.22-0.53,0.34-0.79l0.25-0.51c1.07-2.18,2.86-3.96,5.03-5.03l0.58-0.28c0.16-0.07,0.32-0.14,0.48-0.2
	c0.35-0.13,0.7-0.22,1.06-0.31c0.18-0.05,0.36-0.09,0.55-0.13c0.32-0.06,0.65-0.11,0.97-0.14c0.21-0.02,0.43-0.04,0.64-0.05
	c0.31-0.01,0.62-0.02,0.92,0c0.42,0.02,0.84,0.06,1.25,0.13c0.43,0.07,0.86,0.16,1.28,0.28c0.32,0.09,0.64,0.18,0.94,0.29
	c0.29,0.11,0.58,0.23,0.86,0.36c0.32,0.15,0.64,0.33,0.94,0.51c0.21,0.13,0.43,0.24,0.63,0.38c0.45,0.31,0.86,0.66,1.25,1.03
	c0.42,0.39,0.78,0.82,1.13,1.26c0.12,0.15,0.26,0.29,0.37,0.45c0.29,0.41,0.51,0.85,0.74,1.29c0.11,0.23,0.26,0.43,0.36,0.66
	c0.18,0.42,0.29,0.86,0.42,1.3c0.08,0.27,0.19,0.53,0.25,0.81c0.14,0.73,0.22,1.48,0.22,2.24
	C70.62,104.29,65.67,109.24,59.59,109.24z M81.66,100.41c-2.39,0-4.71-0.78-6.62-2.22c0-0.01,0-0.02,0-0.03
	c0-0.73-0.07-1.45-0.17-2.15c-0.02-0.13-0.04-0.26-0.06-0.38c-0.26-1.52-0.74-2.96-1.4-4.3c-0.01-0.02-0.02-0.04-0.03-0.07
	c-0.36-0.7-0.76-1.37-1.21-2c0,0,0-0.01-0.01-0.01c1.05-0.66,2.01-1.45,2.86-2.33c0.15-0.15,0.29-0.31,0.43-0.47
	c0.33-0.37,0.64-0.75,0.93-1.15c0.13-0.18,0.27-0.34,0.39-0.52c0.34-0.5,0.64-1.02,0.92-1.56c0.16-0.31,0.3-0.64,0.44-0.96
	c0.11-0.25,0.21-0.51,0.31-0.76c0.15-0.4,0.29-0.79,0.4-1.2c0.02-0.06,0.03-0.13,0.05-0.19c0.12-0.44,0.23-0.87,0.31-1.32
	c0.83-0.21,1.86-0.43,2.46-0.43c0.73,0,1.44,0.08,2.13,0.22c0.3,0.06,0.59,0.17,0.89,0.26c0.38,0.11,0.76,0.2,1.12,0.35
	c0.35,0.14,0.68,0.34,1.02,0.52c0.28,0.15,0.56,0.28,0.82,0.45c0.36,0.23,0.68,0.51,1.01,0.78c2.45,2.02,4.05,5.05,4.05,8.47
	C92.69,95.46,87.74,100.41,81.66,100.41z M97.1,67.31c0,4.16-2.39,7.97-6.04,9.83c-0.04-0.03-0.08-0.05-0.12-0.08
	c-1.25-0.94-2.63-1.69-4.13-2.22c-0.1-0.04-0.19-0.07-0.29-0.11c-0.7-0.23-1.42-0.41-2.16-0.54c-0.14-0.02-0.28-0.04-0.42-0.06
	c-0.75-0.11-1.51-0.19-2.29-0.19c-0.05,0-0.25,0.02-0.5,0.04c-0.62,0.02-1.23,0.07-1.84,0.16c-0.01-0.05-0.02-0.09-0.03-0.14
	c-0.08-0.58-0.2-1.15-0.34-1.71c-0.03-0.1-0.05-0.2-0.08-0.3c-0.37-1.33-0.92-2.59-1.62-3.76c-0.04-0.06-0.08-0.13-0.11-0.19
	c-0.36-0.59-0.75-1.16-1.19-1.69c0.06-0.02,0.12-0.05,0.18-0.08c0.47-0.18,0.93-0.38,1.38-0.6c0.07-0.04,0.13-0.07,0.2-0.11
	c0.49-0.25,0.96-0.53,1.41-0.82c0.01-0.01,0.02-0.01,0.03-0.02c2.98-1.97,5.24-4.94,6.28-8.43C91.74,55.9,97.1,61.01,97.1,67.31z
	 M101.63,34.32c11.54,1.1,20.75,10.31,21.85,21.85C111.94,55.07,102.72,45.86,101.63,34.32z"/>
</svg>
