<?xml version="1.0" encoding="utf-8"?>
<!-- Generator: Adobe Illustrator 23.0.0, SVG Export Plug-In . SVG Version: 6.00 Build 0)  -->
<svg version="1.1" id="Capa_1" xmlns="http://www.w3.org/2000/svg" xmlns:xlink="http://www.w3.org/1999/xlink" x="0px" y="0px"
	 viewBox="0 0 128 128" style="enable-background:new 0 0 128 128;" xml:space="preserve">
<g>
	<g>
		<path d="M25.99,59.24l4.1,0.02c1.06,0.01,1.83,0.25,2.31,0.74c0.48,0.49,0.72,1.1,0.71,1.83c-0.01,0.93-0.39,1.58-1.15,1.94
			c0.49,0.18,0.85,0.48,1.09,0.89c0.24,0.41,0.36,0.85,0.35,1.31c0,0.77-0.27,1.43-0.79,1.99c-0.52,0.55-1.32,0.83-2.4,0.82
			l-4.29-0.02L25.99,59.24z M29.85,63c0.47,0,0.83-0.09,1.06-0.27c0.24-0.18,0.36-0.43,0.36-0.75c0-0.67-0.39-1.01-1.17-1.01
			l-2.32-0.01l-0.01,2.03L29.85,63z M30.32,67.07c0.44,0,0.75-0.11,0.95-0.33c0.2-0.22,0.3-0.48,0.3-0.78
			c0-0.82-0.53-1.24-1.61-1.25l-2.2-0.01l-0.01,2.35L30.32,67.07z"/>
		<path d="M38.82,68.99c-0.5,0-0.96-0.07-1.39-0.2c-0.43-0.13-0.83-0.34-1.19-0.63c-0.36-0.29-0.65-0.69-0.86-1.19
			c-0.21-0.51-0.31-1.11-0.3-1.8l0.03-5.87l1.8,0.01l-0.03,5.87c0,0.75,0.16,1.28,0.49,1.59c0.33,0.31,0.82,0.46,1.47,0.46
			c0.64,0,1.13-0.15,1.47-0.45c0.34-0.3,0.51-0.83,0.51-1.58l0.03-5.87l1.8,0.01l-0.03,5.87c-0.01,1.31-0.37,2.28-1.08,2.88
			C40.81,68.7,39.91,69,38.82,68.99z"/>
		<path d="M47.32,68.88l0.02-3.71l-3.43-5.83l2.04,0.01l2.29,3.9l2.33-3.88l2.04,0.01l-3.49,5.79l-0.02,3.71L47.32,68.88z"/>
		<path d="M60.63,61.2l-0.04,7.75l-1.8-0.01l0.04-7.75l-2.67-0.01l0.01-1.77l7.15,0.04l-0.01,1.77L60.63,61.2z"/>
		<path d="M64.86,68.97l0.05-9.52l1.8,0.01l-0.05,9.52L64.86,68.97z"/>
		<path d="M72.46,69.17c-0.7,0-1.32-0.15-1.84-0.44c-0.52-0.29-0.93-0.68-1.22-1.16c-0.29-0.49-0.5-1.01-0.64-1.56
			c-0.14-0.55-0.2-1.14-0.2-1.77c0-0.58,0.08-1.14,0.22-1.69c0.15-0.55,0.37-1.07,0.66-1.56c0.3-0.49,0.71-0.89,1.24-1.19
			c0.53-0.3,1.14-0.45,1.83-0.45c0.84,0,1.54,0.22,2.11,0.64c0.57,0.42,0.98,0.93,1.21,1.53l-1.62,0.74
			c-0.25-0.39-0.5-0.68-0.76-0.86c-0.26-0.18-0.58-0.27-0.96-0.28c-0.49,0-0.9,0.16-1.22,0.5c-0.33,0.34-0.55,0.73-0.67,1.18
			c-0.12,0.45-0.18,0.93-0.18,1.45c0,0.82,0.17,1.56,0.52,2.19c0.35,0.64,0.86,0.96,1.52,0.96c0.65,0,1.22-0.4,1.7-1.21l1.65,0.65
			C75.12,68.4,74,69.17,72.46,69.17z"/>
		<path d="M83.36,69.08l-2.38-4.57l-1.75,2.17l-0.01,2.38l-1.8-0.01l0.05-9.52l1.8,0.01l-0.02,4.54l3.56-4.52l2.14,0.01l-2.74,3.4
			l3.27,6.12L83.36,69.08z"/>
		<path d="M86.94,69.1l0.05-9.52l6.39,0.04l-0.01,1.74l-4.58-0.03l-0.01,2l2.7,0.02l-0.01,1.74l-2.7-0.02l-0.01,2.3l4.86,0.03
			l-0.01,1.74L86.94,69.1z"/>
		<path d="M99.19,61.41l-0.04,7.75l-1.8-0.01l0.04-7.75l-2.67-0.01l0.01-1.77l7.15,0.04l-0.01,1.77L99.19,61.41z"/>
	</g>
	<g>
		<rect x="15.85" y="40.36" transform="matrix(5.467059e-03 -1 1 5.467059e-03 -24.1867 58.6211)" width="3.05" height="2.23"/>
		<path d="M18.29,78.56l-2.23-0.01l0.03-5.93l2.23,0.01L18.29,78.56z M18.36,66.71l-2.23-0.01l0.03-5.93l2.23,0.01L18.36,66.71z
			 M18.42,54.86l-2.23-0.01l0.03-5.93l2.23,0.01L18.42,54.86z"/>
		<rect x="15.61" y="84.9" transform="matrix(5.467059e-03 -1 1 5.467059e-03 -68.9634 102.6772)" width="3.05" height="2.23"/>
	</g>
	<g>
		<rect x="108.59" y="40.87" transform="matrix(5.467059e-03 -1 1 5.467059e-03 67.5216 151.8656)" width="3.05" height="2.23"/>
		<path d="M111.02,79.08l-2.23-0.01l0.03-5.93l2.23,0.01L111.02,79.08z M111.09,67.23l-2.23-0.01l0.03-5.93l2.23,0.01L111.09,67.23z
			 M111.15,55.37l-2.23-0.01l0.03-5.93l2.23,0.01L111.15,55.37z"/>
		<rect x="108.35" y="85.41" transform="matrix(5.467059e-03 -1 1 5.467059e-03 22.7444 195.9218)" width="3.05" height="2.23"/>
	</g>
	<path d="M127.74,89l-0.83,0L0,88.29L0.09,71.4l0.83,0c2.11,0.01,4.12-0.81,5.63-2.32c1.51-1.5,2.34-3.51,2.35-5.65
		c0.02-4.42-3.52-8.03-7.89-8.05l-0.83,0L0.26,39L128,39.71l-0.09,16.89l-0.83,0c-0.01,0-0.03,0-0.04,0c-4.36,0-7.91,3.56-7.94,7.97
		c-0.02,4.42,3.52,8.03,7.89,8.05l0.83,0L127.74,89z M1.68,86.6l124.4,0.69l0.07-13.02c-4.91-0.46-8.75-4.65-8.72-9.72
		c0.03-5.07,3.91-9.22,8.82-9.62l0.07-13.52L1.93,40.71L1.86,53.73c4.91,0.46,8.75,4.65,8.72,9.72c-0.01,2.59-1.03,5.03-2.85,6.85
		C6.1,71.92,4,72.89,1.75,73.07L1.68,86.6z"/>
</g>
</svg>
