<?xml version="1.0" encoding="utf-8"?>
<!-- Generator: Adobe Illustrator 23.0.0, SVG Export Plug-In . SVG Version: 6.00 Build 0)  -->
<svg version="1.1" id="Capa_1" xmlns="http://www.w3.org/2000/svg" xmlns:xlink="http://www.w3.org/1999/xlink" x="0px" y="0px"
	 viewBox="0 0 128 128" style="enable-background:new 0 0 128 128;" xml:space="preserve">
<g>
	<path d="M36.27,51.05h-19.2l0,6.4C17.08,70.4,27.58,80.9,40.53,80.91h19.2v-6.4C59.72,61.56,49.22,51.06,36.27,51.05z M55.47,76.65
		l-14.93,0c-10.6-0.01-19.19-8.6-19.2-19.2v-2.13h14.93c10.6,0.01,19.19,8.6,19.2,19.2V76.65z"/>
	<path d="M124.77,30.02c-6.45,3.87-14.07,5.31-21.49,4.08l-0.71-0.12c-8.64-1.44-17.51,0.32-24.94,4.97l-4.61,2.88l-7.35-9.19h-3.33
		l-7.35,9.19l-4.61-2.88c-7.43-4.65-16.3-6.41-24.94-4.97l-0.71,0.12c-7.42,1.24-15.04-0.21-21.49-4.08L0,31.85l0,29.87
		c0.02,20.02,16.25,36.24,36.27,36.27h55.47c20.02-0.02,36.24-16.25,36.27-36.27l0-29.87L124.77,30.02z M123.73,61.71
		c-0.02,17.66-14.34,31.98-32,32l-55.47,0c-17.66-0.02-31.98-14.34-32-32l0-26.32c6.59,3.09,13.97,4.1,21.15,2.91l0.71-0.12
		c7.61-1.27,15.43,0.29,21.97,4.38l6.22,3.89l2.8-0.47L64,37.39l6.87,8.58l2.8,0.47l6.22-3.89c6.55-4.09,14.36-5.65,21.97-4.38
		l0.71,0.12c7.18,1.2,14.56,0.18,21.16-2.91V61.71z"/>
	<path d="M68.27,74.51v6.4h19.2c12.95-0.02,23.45-10.51,23.47-23.47v-6.4l-19.2,0C78.78,51.06,68.28,61.56,68.27,74.51z
		 M106.67,57.45c-0.01,10.6-8.6,19.19-19.2,19.2H72.53v-2.13c0.01-10.6,8.6-19.19,19.2-19.2h14.93V57.45z"/>
	<path d="M61.87,85.18h4.27v4.27h-4.27L61.87,85.18z"/>
	<path d="M44.8,85.18l4.27,0v4.27H44.8V85.18z"/>
	<path d="M29.87,85.18h4.27v4.27h-4.27V85.18z"/>
	<path d="M17.07,78.78h4.27v4.27h-4.27L17.07,78.78z"/>
	<path d="M10.67,68.11h4.27v4.27h-4.27L10.67,68.11z"/>
	<path d="M8.53,55.31h4.27v4.27H8.53L8.53,55.31z"/>
	<path d="M8.53,42.51h4.27v4.27H8.53L8.53,42.51z"/>
	<path d="M23.47,42.51h4.27v4.27h-4.27V42.51z"/>
	<path d="M38.4,42.51h4.27v4.27H38.4V42.51z"/>
	<path d="M53.33,48.91h4.27v4.27h-4.27V48.91z"/>
	<path d="M61.87,57.45l4.27,0v4.27l-4.27,0V57.45z"/>
	<path d="M78.93,85.18h4.27v4.27h-4.27V85.18z"/>
	<path d="M93.87,85.18h4.27v4.27l-4.27,0V85.18z"/>
	<path d="M106.67,78.78h4.27v4.27h-4.27V78.78z"/>
	<path d="M113.07,68.11h4.27v4.27h-4.27V68.11z"/>
	<path d="M115.2,55.31h4.27v4.27h-4.27V55.31z"/>
	<path d="M115.2,42.51h4.27v4.27h-4.27L115.2,42.51z"/>
	<path d="M100.27,42.51h4.27v4.27h-4.27V42.51z"/>
	<path d="M85.33,42.51h4.27v4.27h-4.27V42.51z"/>
	<path d="M70.4,48.91h4.27v4.27H70.4V48.91z"/>
</g>
</svg>
