<?xml version="1.0" encoding="utf-8"?>
<!-- Generator: Adobe Illustrator 23.0.0, SVG Export Plug-In . SVG Version: 6.00 Build 0)  -->
<svg version="1.1" id="Capa_1" xmlns="http://www.w3.org/2000/svg" xmlns:xlink="http://www.w3.org/1999/xlink" x="0px" y="0px"
	 viewBox="0 0 128 128" style="enable-background:new 0 0 128 128;" xml:space="preserve">
<g>
	<g>
		<path d="M33.36,59.55V70.6h-2.2V59.55h-3.65v-2.17H37v2.17H33.36z"/>
		<path d="M39.38,70.6V57.38h2.2V70.6H39.38z"/>
		<path d="M49.7,70.82c-0.77,0-1.47-0.13-2.09-0.4c-0.62-0.26-1.13-0.62-1.53-1.06s-0.73-0.96-1-1.57c-0.27-0.6-0.46-1.22-0.58-1.85
			c-0.12-0.63-0.17-1.28-0.17-1.97c0-0.81,0.1-1.59,0.29-2.36c0.2-0.77,0.5-1.49,0.9-2.18s0.96-1.24,1.69-1.66
			c0.72-0.42,1.55-0.63,2.49-0.63c1.14,0,2.09,0.27,2.86,0.82c0.77,0.55,1.31,1.21,1.61,1.99l-1.98,0.93
			c-0.34-0.54-0.7-0.94-1.07-1.19c-0.37-0.25-0.85-0.38-1.42-0.38c-0.56,0-1.05,0.14-1.48,0.42c-0.42,0.28-0.74,0.66-0.97,1.13
			c-0.23,0.47-0.39,0.97-0.5,1.49c-0.1,0.52-0.16,1.06-0.16,1.61c0,1.23,0.26,2.32,0.8,3.25c0.53,0.93,1.3,1.4,2.3,1.4
			c0.98,0,1.8-0.57,2.46-1.7l2.03,0.79C53.3,69.79,51.8,70.82,49.7,70.82z"/>
		<path d="M64.58,70.6l-3.44-6.63l-2.33,2.93v3.7h-2.2V57.38h2.2v6.34l4.89-6.34h2.57l-3.66,4.68l4.55,8.54H64.58z"/>
		<path d="M69.35,70.6V57.38h8.36v2.13h-6.16v3.19h3.79v2.14h-3.79v3.62h6.56v2.14H69.35z"/>
		<path d="M85.6,59.55V70.6h-2.2V59.55h-3.65v-2.17h9.49v2.17H85.6z"/>
		<path d="M95.64,70.82c-1.17,0-2.19-0.31-3.03-0.92c-0.85-0.61-1.45-1.44-1.8-2.5l2.03-0.77c0.27,0.62,0.65,1.11,1.15,1.48
			s1.08,0.56,1.72,0.56c0.67,0,1.21-0.16,1.6-0.47c0.4-0.31,0.6-0.77,0.6-1.36c0-0.24-0.06-0.46-0.17-0.67
			c-0.11-0.21-0.24-0.38-0.38-0.52c-0.14-0.14-0.35-0.28-0.63-0.42c-0.28-0.14-0.52-0.25-0.72-0.33c-0.19-0.08-0.48-0.18-0.86-0.31
			c-0.49-0.18-0.86-0.31-1.13-0.42c-0.26-0.1-0.6-0.27-1.01-0.5c-0.41-0.23-0.72-0.47-0.93-0.71c-0.21-0.24-0.4-0.56-0.57-0.95
			c-0.17-0.4-0.25-0.83-0.25-1.31c0-1.01,0.38-1.85,1.14-2.53c0.76-0.68,1.78-1.02,3.08-1.02c1.08,0,1.97,0.26,2.68,0.78
			c0.71,0.52,1.18,1.21,1.43,2.05l-1.98,0.68c-0.39-0.91-1.15-1.36-2.27-1.36c-0.57,0-1.02,0.12-1.35,0.37
			c-0.32,0.25-0.49,0.6-0.49,1.05c0,0.3,0.13,0.57,0.38,0.81c0.25,0.24,0.52,0.42,0.81,0.54c0.29,0.12,0.71,0.27,1.27,0.46
			c0.37,0.14,0.64,0.24,0.83,0.31c0.19,0.07,0.46,0.18,0.8,0.35c0.34,0.16,0.61,0.31,0.81,0.44c0.2,0.13,0.42,0.31,0.67,0.54
			c0.25,0.23,0.44,0.46,0.58,0.71c0.14,0.25,0.25,0.53,0.35,0.87c0.1,0.33,0.15,0.69,0.15,1.09c0,1.23-0.43,2.21-1.27,2.92
			C98.03,70.47,96.95,70.82,95.64,70.82z"/>
	</g>
	<g>
		<g>
			<rect x="16.05" y="39.86" width="2.23" height="3.09"/>
		</g>
		<g>
			<path d="M18.28,79.03h-2.23v-6.01h2.23V79.03z M18.28,67.01h-2.23v-6.01h2.23V67.01z M18.28,54.98h-2.23v-6.01h2.23V54.98z"/>
		</g>
		<g>
			<rect x="16.05" y="85.04" width="2.23" height="3.09"/>
		</g>
	</g>
	<g>
		<g>
			<rect x="108.97" y="39.86" width="2.23" height="3.09"/>
		</g>
		<g>
			<path d="M111.2,79.03h-2.23v-6.01h2.23V79.03z M111.2,67.01h-2.23v-6.01h2.23V67.01z M111.2,54.98h-2.23v-6.01h2.23V54.98z"/>
		</g>
		<g>
			<rect x="108.97" y="85.04" width="2.23" height="3.09"/>
		</g>
	</g>
	<g>
		<path d="M128,89H0V71.87h0.84c4.39,0,7.95-3.65,7.95-8.13s-3.57-8.13-7.95-8.13H0V39h128v17.13h-0.84c-4.39,0-7.95,3.64-7.95,8.13
			s3.57,8.13,7.95,8.13H128V89z M1.67,87.28h124.65V74.07c-4.92-0.44-8.79-4.67-8.79-9.81s3.87-9.38,8.79-9.81V40.72H1.67v13.21
			c4.92,0.44,8.79,4.67,8.79,9.81c0,5.14-3.87,9.38-8.79,9.81V87.28z"/>
	</g>
</g>
</svg>
